<svg width="13" height="14" viewBox="0 0 13 14" fill="none" xmlns="http://www.w3.org/2000/svg">
<path d="M6.91777 0.157656C6.80696 0.0567088 6.65669 0 6.5 0C6.34331 0 6.19304 0.0567088 6.08223 0.157656L0.173136 5.54231C0.0623119 5.64327 3.34676e-05 5.78021 0 5.92301V13.4615C0 13.6043 0.0622564 13.7413 0.173073 13.8423C0.28389 13.9433 0.43419 14 0.590909 14H12.4091C12.5658 14 12.7161 13.9433 12.8269 13.8423C12.9377 13.7413 13 13.6043 13 13.4615V5.92301C13 5.78021 12.9377 5.64327 12.8269 5.54231L6.91777 0.157656ZM11.8182 12.9231H1.18182V6.14594L6.5 1.29974L11.8182 6.14594V12.9231Z" fill="#6D93B2"/>
</svg>
