<svg width="9" height="16" viewBox="0 0 9 16" fill="none" xmlns="http://www.w3.org/2000/svg">
<mask id="path-1-outside-1_1479:1668" maskUnits="userSpaceOnUse" x="-5.41421" y="-2.38819" width="19.799" height="19.799" fill="black">
<rect fill="white" x="-5.41421" y="-2.38819" width="19.799" height="19.799"/>
<path d="M1.51555 1.99463C0.828512 2.72773 0.405191 3.71253 0.406741 4.79593C0.409089 6.43713 1.38149 7.84985 2.77764 8.50154L2.78563 14.0936C2.78579 14.1975 2.82023 14.2275 2.85589 14.2824C2.89156 14.3374 2.94132 14.3981 2.99614 14.4642C3.10573 14.5963 3.24951 14.7517 3.3992 14.901C3.54886 15.0502 3.70127 15.19 3.83368 15.2992C3.89988 15.3538 3.96081 15.4034 4.01586 15.4389C4.0709 15.4744 4.10102 15.5088 4.20492 15.5086L4.51987 15.5081L4.83832 15.5111C4.94223 15.5109 4.97224 15.4695 5.02717 15.4338C5.08216 15.3981 5.14291 15.3554 5.20897 15.3005C5.34105 15.1909 5.49655 15.0471 5.64581 14.8974C5.79506 14.7477 5.93842 14.5918 6.04762 14.4593C6.10224 14.3931 6.14481 14.3322 6.18032 14.2771C6.2158 14.2221 6.25719 14.192 6.25705 14.0881L6.24905 8.496C7.64133 7.83911 8.60821 6.42613 8.60586 4.78638C8.60339 3.05296 7.52024 1.57203 5.99685 0.976167C5.97336 0.966831 5.94798 0.963245 5.92282 0.96572C5.89767 0.968195 5.87347 0.976652 5.85226 0.990388C5.83104 1.00412 5.81342 1.02274 5.80086 1.04468C5.7883 1.06661 5.78117 1.09123 5.78008 1.11648L5.60595 4.15076C5.60017 4.25156 5.54167 4.31883 5.45222 4.31898L4.50387 4.31699L3.55903 4.31849C3.46958 4.31863 3.4074 4.25505 3.40132 4.15427L3.21851 1.12056C3.21664 1.09606 3.20909 1.07232 3.19645 1.05124C3.18382 1.03015 3.16645 1.0123 3.14572 0.999094C3.12499 0.985885 3.10147 0.97768 3.07702 0.975135C3.05257 0.97259 3.02786 0.975772 3.00485 0.984426C2.43422 1.20969 1.92777 1.55477 1.51555 1.99463ZM1.74682 2.21122C2.07728 1.85894 2.47767 1.57558 2.92142 1.36949L3.0899 4.17226C3.10483 4.42009 3.30318 4.63734 3.56298 4.63693L4.50782 4.63542L5.45267 4.63392C5.71247 4.63351 5.9102 4.41563 5.92441 4.16774L6.08489 1.37145C7.37974 1.96957 8.28523 3.26174 8.28739 4.78337C8.28961 6.33479 7.35848 7.66542 6.02473 8.2514C5.99567 8.26344 5.97085 8.28387 5.95343 8.31007C5.93602 8.33627 5.9268 8.36707 5.92696 8.39853L5.93506 14.0606C5.93373 14.0677 5.92982 14.0871 5.91763 14.1061C5.89324 14.144 5.85213 14.1964 5.80237 14.2568C5.70284 14.3774 5.56522 14.5296 5.42152 14.6738C5.27781 14.8179 5.12605 14.956 5.00564 15.0559C4.94539 15.1058 4.89309 15.147 4.85533 15.1716C4.83641 15.1839 4.8144 15.1905 4.80637 15.1927L4.51941 15.1931L4.23246 15.1936C4.22525 15.1905 4.20588 15.1814 4.18693 15.1692C4.14906 15.1447 4.09664 15.1037 4.03629 15.0539C3.91564 14.9544 3.76693 14.8203 3.62283 14.6767C3.4787 14.533 3.34068 14.3812 3.24079 14.2608C3.19086 14.2006 3.14963 14.1483 3.1251 14.1105C3.11283 14.0916 3.10712 14.0758 3.10403 14.0686L3.09245 8.40305C3.09213 8.37258 3.08302 8.34285 3.06623 8.31743C3.04943 8.29201 3.02566 8.27197 2.99776 8.25972C1.66234 7.678 0.727409 6.35034 0.725191 4.79892C0.723759 3.7977 1.1128 2.8871 1.74682 2.21122Z"/>
</mask>
<path d="M1.51555 1.99463C0.828512 2.72773 0.405191 3.71253 0.406741 4.79593C0.409089 6.43713 1.38149 7.84985 2.77764 8.50154L2.78563 14.0936C2.78579 14.1975 2.82023 14.2275 2.85589 14.2824C2.89156 14.3374 2.94132 14.3981 2.99614 14.4642C3.10573 14.5963 3.24951 14.7517 3.3992 14.901C3.54886 15.0502 3.70127 15.19 3.83368 15.2992C3.89988 15.3538 3.96081 15.4034 4.01586 15.4389C4.0709 15.4744 4.10102 15.5088 4.20492 15.5086L4.51987 15.5081L4.83832 15.5111C4.94223 15.5109 4.97224 15.4695 5.02717 15.4338C5.08216 15.3981 5.14291 15.3554 5.20897 15.3005C5.34105 15.1909 5.49655 15.0471 5.64581 14.8974C5.79506 14.7477 5.93842 14.5918 6.04762 14.4593C6.10224 14.3931 6.14481 14.3322 6.18032 14.2771C6.2158 14.2221 6.25719 14.192 6.25705 14.0881L6.24905 8.496C7.64133 7.83911 8.60821 6.42613 8.60586 4.78638C8.60339 3.05296 7.52024 1.57203 5.99685 0.976167C5.97336 0.966831 5.94798 0.963245 5.92282 0.96572C5.89767 0.968195 5.87347 0.976652 5.85226 0.990388C5.83104 1.00412 5.81342 1.02274 5.80086 1.04468C5.7883 1.06661 5.78117 1.09123 5.78008 1.11648L5.60595 4.15076C5.60017 4.25156 5.54167 4.31883 5.45222 4.31898L4.50387 4.31699L3.55903 4.31849C3.46958 4.31863 3.4074 4.25505 3.40132 4.15427L3.21851 1.12056C3.21664 1.09606 3.20909 1.07232 3.19645 1.05124C3.18382 1.03015 3.16645 1.0123 3.14572 0.999094C3.12499 0.985885 3.10147 0.97768 3.07702 0.975135C3.05257 0.97259 3.02786 0.975772 3.00485 0.984426C2.43422 1.20969 1.92777 1.55477 1.51555 1.99463ZM1.74682 2.21122C2.07728 1.85894 2.47767 1.57558 2.92142 1.36949L3.0899 4.17226C3.10483 4.42009 3.30318 4.63734 3.56298 4.63693L4.50782 4.63542L5.45267 4.63392C5.71247 4.63351 5.9102 4.41563 5.92441 4.16774L6.08489 1.37145C7.37974 1.96957 8.28523 3.26174 8.28739 4.78337C8.28961 6.33479 7.35848 7.66542 6.02473 8.2514C5.99567 8.26344 5.97085 8.28387 5.95343 8.31007C5.93602 8.33627 5.9268 8.36707 5.92696 8.39853L5.93506 14.0606C5.93373 14.0677 5.92982 14.0871 5.91763 14.1061C5.89324 14.144 5.85213 14.1964 5.80237 14.2568C5.70284 14.3774 5.56522 14.5296 5.42152 14.6738C5.27781 14.8179 5.12605 14.956 5.00564 15.0559C4.94539 15.1058 4.89309 15.147 4.85533 15.1716C4.83641 15.1839 4.8144 15.1905 4.80637 15.1927L4.51941 15.1931L4.23246 15.1936C4.22525 15.1905 4.20588 15.1814 4.18693 15.1692C4.14906 15.1447 4.09664 15.1037 4.03629 15.0539C3.91564 14.9544 3.76693 14.8203 3.62283 14.6767C3.4787 14.533 3.34068 14.3812 3.24079 14.2608C3.19086 14.2006 3.14963 14.1483 3.1251 14.1105C3.11283 14.0916 3.10712 14.0758 3.10403 14.0686L3.09245 8.40305C3.09213 8.37258 3.08302 8.34285 3.06623 8.31743C3.04943 8.29201 3.02566 8.27197 2.99776 8.25972C1.66234 7.678 0.727409 6.35034 0.725191 4.79892C0.723759 3.7977 1.1128 2.8871 1.74682 2.21122Z" fill="#6D93B2"/>
<path d="M1.51555 1.99463L1.26017 1.7553L1.26017 1.7553L1.51555 1.99463ZM0.406741 4.79593L0.0567413 4.79643L0.0567413 4.79643L0.406741 4.79593ZM2.77764 8.50154L3.12764 8.50103L3.12733 8.27851L2.92568 8.18438L2.77764 8.50154ZM2.78563 14.0936L2.43563 14.0941L2.43563 14.0941L2.78563 14.0936ZM2.85589 14.2824L2.56234 14.473L2.56235 14.473L2.85589 14.2824ZM2.99614 14.4642L3.26549 14.2407L3.26548 14.2407L2.99614 14.4642ZM3.3992 14.901L3.64631 14.6531L3.64631 14.6531L3.3992 14.901ZM3.83368 15.2992L4.05637 15.0292L4.05637 15.0292L3.83368 15.2992ZM4.01586 15.4389L3.82612 15.733L3.82613 15.733L4.01586 15.4389ZM4.20492 15.5086L4.20436 15.1586L4.20432 15.1586L4.20492 15.5086ZM4.51987 15.5081L4.52316 15.1581L4.51931 15.1581L4.51987 15.5081ZM4.83832 15.5111L4.83503 15.8611L4.83888 15.8611L4.83832 15.5111ZM5.02717 15.4338L4.83681 15.1401L4.83647 15.1403L5.02717 15.4338ZM5.20897 15.3005L5.43247 15.5699L5.43252 15.5698L5.20897 15.3005ZM6.04762 14.4593L5.77761 14.2367L5.77757 14.2367L6.04762 14.4593ZM6.18032 14.2771L6.47443 14.4669L6.47461 14.4666L6.18032 14.2771ZM6.25705 14.0881L6.60705 14.0876L6.60705 14.0876L6.25705 14.0881ZM6.24905 8.496L6.0997 8.17947L5.89873 8.27429L5.89905 8.4965L6.24905 8.496ZM8.60586 4.78638L8.25586 4.78688L8.25586 4.78688L8.60586 4.78638ZM5.99685 0.976167L5.86754 1.30141L5.86935 1.30212L5.99685 0.976167ZM5.78008 1.11648L6.12953 1.13654L6.12975 1.13169L5.78008 1.11648ZM5.60595 4.15076L5.95537 4.17081L5.60595 4.15076ZM5.45222 4.31898L5.45148 4.66898L5.45278 4.66898L5.45222 4.31898ZM4.50387 4.31699L4.50461 3.96698L4.50331 3.96699L4.50387 4.31699ZM3.55903 4.31849L3.55847 3.96849L3.55847 3.96849L3.55903 4.31849ZM3.40132 4.15427L3.05196 4.17532L3.05196 4.17532L3.40132 4.15427ZM3.21851 1.12056L3.56793 1.09951L3.5675 1.09388L3.21851 1.12056ZM3.00485 0.984426L2.88162 0.656792L2.87634 0.658875L3.00485 0.984426ZM1.74682 2.21122L1.49155 1.97176L1.49155 1.97176L1.74682 2.21122ZM2.92142 1.36949L3.27079 1.34849L3.23996 0.835652L2.77399 1.05206L2.92142 1.36949ZM3.0899 4.17226L2.74053 4.19326L2.74053 4.19331L3.0899 4.17226ZM3.56298 4.63693L3.56243 4.28693L3.56243 4.28693L3.56298 4.63693ZM4.50782 4.63542L4.50838 4.98542L4.50838 4.98542L4.50782 4.63542ZM5.45267 4.63392L5.45211 4.28392L5.45211 4.28392L5.45267 4.63392ZM5.92441 4.16774L5.57499 4.14769L5.57499 4.14771L5.92441 4.16774ZM6.08489 1.37145L6.23166 1.05371L5.76492 0.83812L5.73546 1.3514L6.08489 1.37145ZM8.28739 4.78337L7.93739 4.78387L7.93739 4.78387L8.28739 4.78337ZM6.02473 8.2514L6.15873 8.57481L6.16552 8.57184L6.02473 8.2514ZM5.92696 8.39853L6.27696 8.39803L6.27695 8.39679L5.92696 8.39853ZM5.93506 14.0606L6.27922 14.1242L6.2851 14.0924L6.28506 14.0601L5.93506 14.0606ZM5.91763 14.1061L6.21201 14.2954L6.21201 14.2954L5.91763 14.1061ZM5.00564 15.0559L5.22886 15.3255L5.22908 15.3253L5.00564 15.0559ZM4.85533 15.1716L5.04554 15.4654L5.04634 15.4649L4.85533 15.1716ZM4.80637 15.1927L4.80691 15.5427L4.85415 15.5426L4.89969 15.53L4.80637 15.1927ZM4.51941 15.1931L4.51886 14.8431L4.51884 14.8431L4.51941 15.1931ZM4.23246 15.1936L4.09489 15.5154L4.16106 15.5437L4.23302 15.5436L4.23246 15.1936ZM4.18693 15.1692L4.37674 14.8751L4.37665 14.875L4.18693 15.1692ZM4.03629 15.0539L4.25899 14.7839L4.25898 14.7839L4.03629 15.0539ZM3.62283 14.6767L3.86994 14.4288L3.62283 14.6767ZM3.24079 14.2608L2.97144 14.4843L2.97144 14.4843L3.24079 14.2608ZM3.1251 14.1105L2.83154 14.3011L2.83155 14.3011L3.1251 14.1105ZM3.10403 14.0686L2.75403 14.0693L2.75418 14.1409L2.78241 14.2066L3.10403 14.0686ZM3.09245 8.40305L3.44246 8.40233L3.44243 8.39935L3.09245 8.40305ZM2.99776 8.25972L3.13845 7.93924L3.13754 7.93885L2.99776 8.25972ZM0.725191 4.79892L0.375191 4.79942L0.375191 4.79942L0.725191 4.79892ZM1.26017 1.7553C0.515261 2.55015 0.0550581 3.61962 0.0567413 4.79643L0.756741 4.79543C0.755325 3.80545 1.14176 2.90532 1.77093 2.23396L1.26017 1.7553ZM0.0567413 4.79643C0.0592919 6.57938 1.11589 8.11213 2.62961 8.81869L2.92568 8.18438C1.64708 7.58757 0.758886 6.29488 0.756741 4.79543L0.0567413 4.79643ZM2.42764 8.50204L2.43563 14.0941L3.13563 14.0931L3.12764 8.50103L2.42764 8.50204ZM2.43563 14.0941C2.43578 14.1889 2.45248 14.2754 2.49172 14.3574C2.50924 14.3941 2.52799 14.4228 2.54021 14.4408C2.55798 14.467 2.55458 14.4611 2.56234 14.473L3.14945 14.0918C3.14206 14.0805 3.13523 14.0705 3.13025 14.0634C3.12899 14.0616 3.12777 14.0598 3.1267 14.0583C3.12558 14.0567 3.12465 14.0553 3.12373 14.054C3.12189 14.0513 3.1206 14.0495 3.11957 14.0479C3.11531 14.0417 3.11874 14.0461 3.12318 14.0553C3.12551 14.0602 3.12783 14.0658 3.12988 14.0718C3.13193 14.0778 3.13336 14.0833 3.13431 14.0879C3.1362 14.0969 3.13564 14.0998 3.13563 14.0931L2.43563 14.0941ZM2.56235 14.473C2.61115 14.5482 2.67466 14.6249 2.7268 14.6877L3.26548 14.2407C3.20798 14.1714 3.17198 14.1265 3.14944 14.0918L2.56235 14.473ZM2.72679 14.6877C2.84503 14.8302 2.99663 14.9939 3.15208 15.1488L3.64631 14.6531C3.50239 14.5096 3.36644 14.3624 3.26549 14.2407L2.72679 14.6877ZM3.15208 15.1488C3.30771 15.304 3.46831 15.4516 3.61099 15.5692L4.05637 15.0292C3.93422 14.9285 3.79002 14.7964 3.64631 14.6531L3.15208 15.1488ZM3.61099 15.5692C3.67396 15.6212 3.75082 15.6844 3.82612 15.733L4.2056 15.1448C4.1708 15.1223 4.1258 15.0865 4.05637 15.0292L3.61099 15.5692ZM3.82613 15.733C3.83813 15.7408 3.83217 15.7374 3.85845 15.7551C3.87652 15.7672 3.90529 15.7859 3.94199 15.8033C4.02415 15.8423 4.11069 15.8588 4.20553 15.8586L4.20432 15.1586C4.19759 15.1586 4.20046 15.158 4.20957 15.1599C4.21415 15.1608 4.21962 15.1623 4.22565 15.1643C4.2317 15.1663 4.23727 15.1686 4.24215 15.1709C4.25145 15.1754 4.25588 15.1788 4.24958 15.1745C4.24805 15.1735 4.24618 15.1722 4.24353 15.1704C4.2422 15.1695 4.24085 15.1685 4.23924 15.1674C4.2377 15.1664 4.23594 15.1652 4.23412 15.1639C4.22693 15.1589 4.21698 15.1521 4.20559 15.1448L3.82613 15.733ZM4.20548 15.8586L4.52043 15.8581L4.51931 15.1581L4.20436 15.1586L4.20548 15.8586ZM4.51658 15.8581L4.83503 15.8611L4.8416 15.1611L4.52316 15.1581L4.51658 15.8581ZM4.83888 15.8611C4.94413 15.8609 5.03551 15.8382 5.118 15.7934C5.15336 15.7742 5.18113 15.7541 5.19589 15.7433C5.21483 15.7294 5.21488 15.7292 5.21787 15.7273L4.83647 15.1403C4.82284 15.1492 4.81116 15.1574 4.80223 15.1639C4.7978 15.1671 4.7937 15.1701 4.79047 15.1725C4.78688 15.1752 4.78469 15.1768 4.78231 15.1785C4.77777 15.1818 4.77654 15.1827 4.77668 15.1826C4.7771 15.1823 4.77981 15.1805 4.78423 15.1781C4.78878 15.1756 4.79454 15.1728 4.80128 15.1702C4.80805 15.1675 4.81468 15.1655 4.82091 15.1639C4.83355 15.1609 4.84031 15.1611 4.83775 15.1611L4.83888 15.8611ZM5.21753 15.7275C5.28155 15.686 5.35381 15.6352 5.43247 15.5699L4.98546 15.0312C4.93202 15.0755 4.88276 15.1103 4.83681 15.1401L5.21753 15.7275ZM5.43252 15.5698C5.57497 15.4516 5.73865 15.3 5.89367 15.1445L5.39795 14.6503C5.25446 14.7942 5.10713 14.9302 4.98541 15.0312L5.43252 15.5698ZM5.89367 15.1445C6.04862 14.9891 6.19982 14.825 6.31768 14.682L5.77757 14.2367C5.67703 14.3587 5.5415 14.5063 5.39795 14.6503L5.89367 15.1445ZM6.31764 14.682C6.38279 14.603 6.43332 14.5306 6.47443 14.4669L5.88622 14.0874C5.85629 14.1338 5.82168 14.1832 5.77761 14.2367L6.31764 14.682ZM6.47461 14.4666C6.4746 14.4666 6.47481 14.4663 6.47536 14.4655C6.47592 14.4647 6.47676 14.4635 6.47803 14.4617C6.4823 14.4558 6.4828 14.4552 6.49035 14.4448C6.50104 14.4301 6.52108 14.4023 6.54014 14.367C6.58465 14.2844 6.60719 14.1929 6.60705 14.0876L5.90705 14.0885C5.90705 14.0911 5.90681 14.0843 5.90987 14.0716C5.91138 14.0653 5.91344 14.0587 5.91608 14.0519C5.91871 14.0452 5.92149 14.0394 5.92394 14.0349C5.92631 14.0305 5.92808 14.0278 5.92834 14.0274C5.92841 14.0273 5.92759 14.0285 5.92424 14.0331C5.92248 14.0355 5.92088 14.0377 5.91822 14.0413C5.91583 14.0446 5.91281 14.0487 5.9096 14.0532C5.90313 14.0622 5.89487 14.074 5.88604 14.0877L6.47461 14.4666ZM6.60705 14.0876L6.59905 8.4955L5.89905 8.4965L5.90705 14.0886L6.60705 14.0876ZM6.39839 8.81254C7.90765 8.10046 8.95841 6.56744 8.95586 4.78588L8.25586 4.78688C8.25801 6.28481 7.37502 7.57776 6.0997 8.17947L6.39839 8.81254ZM8.95586 4.78588C8.95318 2.90318 7.7767 1.29652 6.12434 0.650214L5.86935 1.30212C7.26379 1.84754 8.2536 3.20273 8.25586 4.78688L8.95586 4.78588ZM6.12615 0.650928C6.0508 0.620971 5.96933 0.609453 5.88855 0.617402L5.9571 1.31404C5.92662 1.31704 5.89592 1.31269 5.86754 1.30141L6.12615 0.650928ZM5.88855 0.617402C5.80782 0.625346 5.73016 0.65249 5.66206 0.696577L6.04245 1.2842C6.01678 1.30081 5.98752 1.31104 5.9571 1.31404L5.88855 0.617402ZM5.66206 0.696577C5.59392 0.740686 5.53738 0.800443 5.4971 0.870801L6.10461 1.21855C6.08945 1.24504 6.06815 1.26756 6.04245 1.2842L5.66206 0.696577ZM5.4971 0.870801C5.45682 0.941172 5.43393 1.02019 5.43041 1.10127L6.12975 1.13169C6.12842 1.16228 6.11978 1.19206 6.10461 1.21855L5.4971 0.870801ZM5.43065 1.09643L5.25652 4.13071L5.95537 4.17081L6.1295 1.13654L5.43065 1.09643ZM5.25652 4.13071C5.25712 4.1203 5.26235 4.08059 5.30047 4.0383C5.34319 3.9909 5.40203 3.96906 5.45166 3.96898L5.45278 4.66898C5.59185 4.66875 5.72467 4.61321 5.82045 4.50693C5.91162 4.40577 5.94899 4.28202 5.95537 4.17081L5.25652 4.13071ZM5.45295 3.96898L4.50461 3.96699L4.50314 4.66698L5.45148 4.66898L5.45295 3.96898ZM4.50331 3.96699L3.55847 3.96849L3.55959 4.66849L4.50443 4.66699L4.50331 3.96699ZM3.55847 3.96849C3.6012 3.96842 3.65696 3.9858 3.70073 4.03115C3.74182 4.07372 3.74971 4.11703 3.75069 4.13321L3.05196 4.17532C3.05901 4.29229 3.10103 4.41779 3.19709 4.51731C3.29584 4.6196 3.42741 4.6687 3.55959 4.66849L3.55847 3.96849ZM3.75069 4.13321L3.56788 1.09951L2.86915 1.14162L3.05196 4.17532L3.75069 4.13321ZM3.5675 1.09388C3.56148 1.0152 3.53723 0.939004 3.49667 0.87132L2.89623 1.23115C2.88094 1.20564 2.8718 1.17691 2.86953 1.14725L3.5675 1.09388ZM3.49667 0.87132C3.45611 0.803643 3.40035 0.746328 3.3338 0.70392L2.95764 1.29427C2.93255 1.27828 2.91152 1.25666 2.89623 1.23115L3.49667 0.87132ZM3.3338 0.70392C3.26727 0.661528 3.19176 0.635189 3.11326 0.627017L3.04078 1.32325C3.01117 1.32017 2.98272 1.31024 2.95764 1.29427L3.3338 0.70392ZM3.11326 0.627017C3.03477 0.618845 2.95547 0.629062 2.88163 0.656835L3.12808 1.31202C3.10026 1.32248 3.07037 1.32633 3.04078 1.32325L3.11326 0.627017ZM2.87634 0.658875C2.25772 0.903085 1.7079 1.27754 1.26017 1.7553L1.77093 2.23396C2.14764 1.83199 2.61072 1.5163 3.13337 1.30998L2.87634 0.658875ZM2.00208 2.45068C2.30007 2.13302 2.66317 1.87533 3.06884 1.68693L2.77399 1.05206C2.29217 1.27582 1.85449 1.58486 1.49155 1.97176L2.00208 2.45068ZM2.57205 1.39049L2.74053 4.19326L3.43927 4.15126L3.27079 1.34849L2.57205 1.39049ZM2.74053 4.19331C2.76509 4.6009 3.09413 4.98768 3.56354 4.98693L3.56243 4.28693C3.53444 4.28697 3.50782 4.2763 3.48401 4.25212C3.45855 4.22626 3.44156 4.18939 3.43926 4.1512L2.74053 4.19331ZM3.56354 4.98693L4.50838 4.98542L4.50727 4.28543L3.56243 4.28693L3.56354 4.98693ZM4.50838 4.98542L5.45322 4.98392L5.45211 4.28392L4.50727 4.28543L4.50838 4.98542ZM5.45322 4.98392C5.92258 4.98318 6.25046 4.59544 6.27384 4.18778L5.57499 4.14771C5.5728 4.1859 5.55592 4.22286 5.5305 4.24883C5.50673 4.27311 5.4801 4.28388 5.45211 4.28392L5.45322 4.98392ZM6.27384 4.1878L6.43431 1.39151L5.73546 1.3514L5.57499 4.14769L6.27384 4.1878ZM5.93812 1.68919C7.11641 2.23346 7.93543 3.40626 7.93739 4.78387L8.63739 4.78288C8.63502 3.11722 7.64308 1.70567 6.23166 1.05371L5.93812 1.68919ZM7.93739 4.78387C7.9394 6.19097 7.0953 7.39876 5.88395 7.93096L6.16552 8.57184C7.62166 7.93209 8.63982 6.4786 8.63739 4.78287L7.93739 4.78387ZM5.89076 7.92805C5.79746 7.96671 5.71781 8.03227 5.66193 8.11635L6.24494 8.50379C6.22389 8.53546 6.19387 8.56017 6.1587 8.57474L5.89076 7.92805ZM5.66193 8.11635C5.60606 8.20043 5.57646 8.29926 5.57696 8.40026L6.27695 8.39679C6.27714 8.43488 6.26598 8.47212 6.24494 8.50379L5.66193 8.11635ZM5.57696 8.39903L5.58506 14.0611L6.28506 14.0601L6.27696 8.39803L5.57696 8.39903ZM5.59089 13.9969C5.59152 13.9935 5.59357 13.9829 5.59792 13.9696C5.60208 13.957 5.60956 13.9381 5.62325 13.9168L6.21201 14.2954C6.26181 14.218 6.27556 14.144 6.27922 14.1242L5.59089 13.9969ZM5.62325 13.9168C5.6114 13.9352 5.58263 13.9731 5.53234 14.0341L6.07239 14.4794C6.12162 14.4197 6.17508 14.3528 6.21201 14.2954L5.62325 13.9168ZM5.53234 14.0341C5.44041 14.1456 5.31028 14.2896 5.17365 14.4267L5.66938 14.9209C5.82017 14.7697 5.96528 14.6093 6.07239 14.4794L5.53234 14.0341ZM5.17365 14.4267C5.037 14.5637 4.89336 14.6943 4.78221 14.7865L5.22908 15.3253C5.35874 15.2178 5.51862 15.0721 5.66938 14.9209L5.17365 14.4267ZM4.78242 14.7863C4.72167 14.8366 4.68332 14.866 4.66432 14.8783L5.04634 15.4649C5.10285 15.4281 5.16912 15.3749 5.22886 15.3255L4.78242 14.7863ZM4.66512 14.8778C4.68187 14.867 4.69479 14.8617 4.69963 14.8598C4.70558 14.8575 4.71028 14.8561 4.71305 14.8554L4.89969 15.53C4.9153 15.5257 4.98001 15.5078 5.04554 15.4654L4.66512 14.8778ZM4.80582 14.8427L4.51886 14.8431L4.51995 15.5431L4.80691 15.5427L4.80582 14.8427ZM4.51884 14.8431L4.2319 14.8436L4.23302 15.5436L4.51997 15.5431L4.51884 14.8431ZM4.37003 14.8718C4.37295 14.873 4.37447 14.8737 4.37464 14.8738C4.37502 14.874 4.37502 14.874 4.37479 14.8739C4.37386 14.8734 4.37448 14.8736 4.37674 14.8751L3.99711 15.4632C4.03691 15.4889 4.07483 15.5068 4.09489 15.5154L4.37003 14.8718ZM4.37665 14.875C4.35788 14.8629 4.31958 14.8339 4.25899 14.7839L3.81359 15.3239C3.87369 15.3735 3.94024 15.4265 3.9972 15.4633L4.37665 14.875ZM4.25898 14.7839C4.14729 14.6918 4.00671 14.5651 3.86994 14.4288L3.37571 14.9245C3.52715 15.0755 3.68398 15.217 3.8136 15.3239L4.25898 14.7839ZM3.86994 14.4288C3.73295 14.2922 3.60243 14.1485 3.51013 14.0373L2.97144 14.4843C3.07893 14.6138 3.22445 14.7737 3.37571 14.9245L3.86994 14.4288ZM3.51013 14.0373C3.45997 13.9769 3.4308 13.9387 3.41864 13.9199L2.83155 14.3011C2.86847 14.358 2.92174 14.4244 2.97144 14.4843L3.51013 14.0373ZM3.41865 13.9199C3.42346 13.9274 3.42675 13.9338 3.42876 13.9382C3.42971 13.9402 3.43027 13.9416 3.43014 13.9413C3.42995 13.9408 3.42989 13.9407 3.42915 13.9389C3.42872 13.9378 3.4273 13.9344 3.42566 13.9305L2.78241 14.2066C2.77923 14.1992 2.79874 14.2506 2.83154 14.3011L3.41865 13.9199ZM3.45403 14.0679L3.44245 8.40233L2.74245 8.40376L2.75403 14.0693L3.45403 14.0679ZM3.44243 8.39935C3.44139 8.30157 3.41219 8.20614 3.35825 8.1245L2.7742 8.51036C2.75386 8.47957 2.74286 8.44359 2.74247 8.40674L3.44243 8.39935ZM3.35825 8.1245C3.30433 8.04289 3.22801 7.97856 3.13845 7.93924L2.85707 8.5802C2.82331 8.56538 2.79453 8.54113 2.7742 8.51036L3.35825 8.1245ZM3.13754 7.93885C1.92473 7.41053 1.0772 6.20551 1.07519 4.79842L0.375191 4.79942C0.377616 6.49517 1.39995 7.94547 2.85798 8.5806L3.13754 7.93885ZM1.07519 4.79842C1.07389 3.88995 1.42651 3.06424 2.00208 2.45068L1.49155 1.97176C0.799076 2.70996 0.373627 3.70544 0.375191 4.79942L1.07519 4.79842Z" fill="#6D93B2" mask="url(#path-1-outside-1_1479:1668)"/>
</svg>
