<svg width="14" height="16" viewBox="0 0 14 16" fill="none" xmlns="http://www.w3.org/2000/svg">
<path d="M12.5733 4.04684L10.9559 5.01756C10.1627 3.88572 8.92808 3.10543 7.51169 2.95247V1V0.825H7.33669H6.66331H6.48831V1V2.95248C5.07192 3.10543 3.83729 3.88572 3.04414 5.01756L1.42675 4.04684L1.27157 3.95371L1.1837 4.11192L0.847012 4.71814L0.764849 4.86608L0.909944 4.95316L2.53567 5.92887C2.26287 6.56164 2.11133 7.26272 2.11133 8C2.11133 8.73728 2.26287 9.43836 2.53567 10.0711L0.909944 11.0468L0.764849 11.1339L0.847012 11.2819L1.1837 11.8881L1.27157 12.0463L1.42675 11.9532L3.04414 10.9824C3.83729 12.1143 5.07192 12.8946 6.48831 13.0475V15V15.175H6.66331H7.33669H7.51169V15V13.0475C8.92808 12.8946 10.1627 12.1143 10.9559 10.9824L12.5733 11.9532L12.7284 12.0463L12.8163 11.8881L13.153 11.2819L13.2352 11.1339L13.0901 11.0468L11.4643 10.0711C11.7371 9.43836 11.8887 8.73728 11.8887 8C11.8887 7.26272 11.7371 6.56164 11.4643 5.92887L13.0901 4.95316L13.2352 4.86608L13.153 4.71814L12.8163 4.11192L12.7284 3.95371L12.5733 4.04684ZM10.8653 8C10.8653 10.2294 9.12841 12.025 7 12.025C4.87159 12.025 3.13471 10.2294 3.13471 8C3.13471 5.7706 4.87159 3.975 7 3.975C9.12841 3.975 10.8653 5.7706 10.8653 8Z" fill="#6D93B2" stroke="#6D93B2" stroke-width="0.35"/>
</svg>
